<svg width="119" height="86" viewBox="0 0 119 86" fill="none" xmlns="http://www.w3.org/2000/svg">
<path d="M22.8025 34.5C21.2412 28.9428 19.6881 25.4854 14.3025 18C9.5225 23.8969 8.22228 31.962 5.80249 46C5.88636 50.1727 6.37015 52.0011 8.30249 54C13.9048 53.026 17.0901 47.5806 22.8025 34.5Z" fill="#44403C"/>
<path d="M8.30244 54C5.79787 51.6507 5.78392 47.6322 7.80244 36.5C-0.19757 41.5 -1.69758 59.5 6.30244 64.5C13.9316 65.2861 18.4616 60.2145 26.8024 45.5L22.3024 34C16.754 47.7839 13.6809 52.7083 8.30244 54Z" fill="#A8A29E"/>
<path d="M10.8025 24.5C8.6765 20.4629 8.01876 17.9793 7.30249 16C5.28177 26.2786 4.48702 32.4742 3.80249 40.5C4.78148 38.9507 5.40034 38.0568 7.80249 36L10.8025 24.5Z" fill="#84CC16"/>
<path d="M43.8025 54.5C30.3025 44 35.8025 39 29.8025 24.5C26.3535 24.1534 24.4051 25.9871 21.3025 31L31.3025 59C33.8068 61.1526 35.3319 62.1368 38.3025 63.5C40.2732 58.2112 41.4921 56.3829 43.8025 54.5Z" fill="#84CC16"/>
<path d="M68.3025 65C61.2304 63.5583 55.7449 61.1302 43.8025 54.5C41.7156 55.8321 40.5083 57.9129 38.3025 63.5C48.8673 69.5957 54.9242 72.4314 66.3025 75C68.064 71.8058 68.4677 69.5915 68.3025 65Z" fill="#84CC16"/>
<path d="M13.8025 1C11.0663 1.9577 9.70061 6.66586 7.30249 16L10.8025 24.5C12.681 20.3321 13.466 18.9457 14.3025 18.5L21.3025 31C24.5464 26.0578 26.3923 24.1418 29.8025 24.5C26.5416 12.7633 22.8455 7.78373 13.8025 1Z" fill="#84CC16"/>
<path d="M117.802 68C117.175 62.1708 113.429 60.4039 102.802 59C104.878 65.2774 105.515 67.5926 104.802 67.5C101.797 68.6269 99.767 68.9933 95.3025 69C96.3053 73.0871 96.347 75.0806 95.3025 78C107.898 77.1138 113.794 75.6926 117.802 68Z" fill="#84CC16"/>
<path d="M95.3025 69C88.3578 69.0975 82.1326 68.0773 68.3025 65C68.6291 70.1602 68.1856 72.3432 66.3025 75C77.6482 77.385 83.9987 78.1324 95.3025 78C96.4372 74.5841 96.4085 72.6103 95.3025 69Z" fill="#84CC16"/>
<path d="M26.8025 45.5C22.3694 54.8926 19.753 58.6274 14.8025 62C38.8025 87.5 93.3025 89 106.802 77.5C83.3025 80 58.0599 77.4074 31.3025 59L26.8025 45.5Z" fill="#FEF3C7"/>
<path d="M84.8024 49.0001C85.8024 55.5 86.8024 63 88.3024 68.5001C94.8024 69.5 104.802 68.5 105.302 67C105.596 64.4158 104.58 61.1377 95.8024 44.5C93.3024 46 89.8024 47.5 84.8024 49.0001Z" fill="#4D7C0F"/>
<path d="M56.8025 33.5C53.8025 39.5 48.3025 51 45.8025 55.5C53.4527 61.8169 64.0088 64.6107 87.8025 69L84.8025 49C74.3025 43.5 62.8025 39 56.8025 33.5Z" fill="#4D7C0F"/>
<path d="M45.8025 13.5C36.8025 12.5 30.3025 14 26.8025 16C35.3025 38 31.1775 40 36.8025 47.5C39.4275 51 41.8229 52.8255 45.8025 55.5L56.8025 33.5L56.6373 33.2661C50.7564 24.935 48.2794 21.4262 45.8025 13.5Z" fill="#4D7C0F"/>
<path d="M70.8025 14.4171C61.8025 11.5 51.8025 12.5 45.3025 13L50.8025 24.4999L56.8025 33.4999C64.8017 38.9932 70.8744 42.3796 84.3025 48.9171C89.5662 47.9823 92.05 46.9802 95.8025 44.4999C90.8025 36.3332 78.8025 20.4999 70.8025 14.4171Z" fill="#4D7C0F"/>
<path d="M46.1772 13.8942C46.9723 18.8942 53.7299 29.6017 56.9099 33.6017M56.9099 33.6017C60.09 36.1017 77.5803 46.1017 84.7354 48.6017M56.9099 33.6017C53.4649 40.2684 46.4953 54.0017 46.1772 55.6017M84.7354 48.6017C89.903 47.6017 92.288 46.6017 95.8656 44.1017M84.7354 48.6017C85.6629 54.435 87.677 66.6017 88.313 68.6017" stroke="#1E293B"/>
<path d="M21.5319 31.1017C22.8569 28.435 26.3019 23.4017 29.482 24.6017" stroke="#1E293B"/>
<path d="M11.2903 25.1468C9.93093 23.3611 7.39217 18.7529 8.11194 14.605" stroke="#1E293B"/>
<path d="M38.4461 64.2896C38.97 61.2148 40.8464 55.0066 44.1612 54.7726" stroke="#1E293B"/>
<path d="M66.8477 74.6017C67.8054 72.6021 69.3392 67.8104 67.8126 64.6407" stroke="#1E293B"/>
<path d="M95.3317 78.6388C95.982 76.4523 96.7921 71.3884 94.8297 68.624" stroke="#1E293B"/>
<path d="M14.7743 62.1017C19.6769 67.6017 34.8086 79.4017 56.115 82.6017C82.748 86.6017 99.8408 82.1017 103.021 80.1017C105.803 78.3517 109.116 76.2684 110.176 75.1017" stroke="#1E293B" stroke-width="2"/>
<path d="M26.6995 16.1017C24.5794 11.935 19.1468 3.10171 14.3767 1.10171C9.60666 -0.89829 5.39252 27.39 3.80249 40.89M7.61912 36.1017C6.4266 36.6017 2.92854 40.1017 1.65652 48.1017C0.066493 58.1017 4.26871 62.6017 5.63159 64.1017C8.81164 67.6017 21.1344 60.1017 26.6995 44.6017" stroke="#1E293B" stroke-width="2"/>
<path d="M54.8207 12.8942C39.2384 13.2942 29.3495 13.7684 26.6995 16.1017C35.0471 36.6017 32.2646 43.6831 39.0222 50.6017C56.115 68.1017 104.611 72.1017 105.008 67.1017C105.406 62.1017 94.5811 36.6017 72.3207 16.1017C72.3207 16.1017 70.403 12.4942 54.8207 12.8942Z" stroke="#1E293B" stroke-width="2"/>
<path d="M103.418 59.1017C107.658 58.935 116.456 60.2017 117.728 66.6017C119.319 74.6017 99.8407 78.6017 97.0581 78.1017C94.2756 77.6017 61.2825 81.1017 31.4695 59.1017C28.6869 49.6017 24.3144 39.435 22.3268 33.6017M22.3268 33.6017C21.1343 30.1017 18.7493 24.6017 14.3767 18.1017C10.7991 20.6017 7.08907 37.2684 6.02905 47.6017C6.02905 51.1017 7.13008 58.1694 12.7867 51.6017C17.9543 45.6017 19.5443 41.6017 22.3268 33.6017Z" stroke="#1E293B" stroke-width="2"/>
</svg>
